<svg width="114" height="40" viewBox="0 0 114 40" fill="none" xmlns="http://www.w3.org/2000/svg">
<path d="M36.7391 16.2167C36.7338 17.2061 36.3852 18.0876 35.713 18.8274C34.2246 20.4611 32.7325 22.0913 31.2405 23.7215C30.5221 24.5074 29.6329 24.8932 28.557 24.8897C25.8237 24.8791 23.0922 24.8862 20.3589 24.8862C20.2113 24.8862 20.0602 24.8897 19.9179 24.8578C19.5107 24.7676 19.3186 24.3711 19.5285 24.0135C19.6494 23.8065 19.8343 23.633 20.0068 23.4595C22.8664 20.5815 25.7277 17.707 28.5873 14.829C28.8558 14.5582 29.1243 14.2874 29.3946 14.0165L29.4106 14.0006C29.5529 13.8572 29.7023 13.721 29.8303 13.567L36.1754 7.02678C36.5293 6.66393 36.6128 6.11523 36.3834 5.66565C36.323 5.54883 36.259 5.43732 36.1896 5.33643C36.5559 5.84619 36.7391 6.44091 36.7409 7.10112C36.7498 10.1402 36.7533 13.1776 36.7391 16.2167Z" fill="url(#paint0_linear_459_1082)"/>
<path d="M36.1748 7.02694L29.8297 13.5671C29.8422 13.553 29.8546 13.537 29.8671 13.5211C30.5464 12.668 30.0929 11.5121 29.0099 11.3475C28.768 11.3104 28.5191 11.3263 28.2737 11.3263C24.5072 11.3263 20.2018 11.3174 16.4336 11.3316C15.7703 11.3351 15.1834 11.1829 14.609 10.8555C11.6001 9.13856 8.58049 7.43936 5.56445 5.73484C5.41507 5.64988 5.26391 5.56669 5.11987 5.47465C4.78554 5.26225 4.68773 4.95604 4.78732 4.58433C4.88157 4.23387 5.13587 4.05687 5.48087 4.01616C5.6996 3.98961 5.92367 4.00377 6.14418 4.00377C10.5758 4.00377 15.5462 4.00377 19.9778 4.00377C24.4094 4.00377 28.9388 4.00731 33.4184 4.002H33.4237C34.2933 4.002 35.0722 4.22856 35.7249 4.81621C35.9009 4.97551 36.0538 5.14543 36.1837 5.32597C36.1837 5.32951 36.1872 5.33128 36.189 5.33482C36.2584 5.43748 36.3224 5.54722 36.3828 5.66404C36.6122 6.11539 36.5269 6.66232 36.1748 7.02518V7.02694Z" fill="url(#paint1_linear_459_1082)"/>
<path d="M4.76451 23.7854C4.76985 22.7959 5.1184 21.9145 5.79061 21.1746C7.27907 19.5409 8.77108 17.9107 10.2631 16.2805C10.9815 15.4947 11.8707 15.1088 12.9466 15.1123C15.6799 15.1229 18.4114 15.1159 21.1447 15.1159C21.2923 15.1159 21.4434 15.1123 21.5857 15.1442C21.9929 15.2345 22.185 15.6309 21.9752 15.9885C21.8542 16.1956 21.6693 16.369 21.4968 16.5425C18.6372 19.4205 15.7759 22.295 12.9164 25.1731C12.6478 25.4439 12.3793 25.7147 12.109 25.9855L12.093 26.0014C11.9507 26.1448 11.8013 26.2811 11.6733 26.4351L5.32824 32.9752C4.97436 33.3381 4.89078 33.8868 5.12018 34.3364C5.18064 34.4532 5.24466 34.5647 5.31402 34.6656C4.94768 34.1558 4.76452 33.5611 4.76274 32.9009C4.75385 29.8618 4.75029 26.8245 4.76451 23.7854Z" fill="url(#paint2_linear_459_1082)"/>
<path d="M5.3252 32.9733L11.6703 26.4331C11.6578 26.4473 11.6454 26.4632 11.6329 26.4791C10.9536 27.3323 11.4071 28.4881 12.4901 28.6527C12.7319 28.6899 12.9809 28.6739 13.2263 28.6739C16.9928 28.6739 21.2981 28.6828 25.0664 28.6686C25.7297 28.6651 26.3166 28.8173 26.891 29.1448C29.8999 30.8617 32.9195 32.5609 35.9355 34.2654C36.0849 34.3504 36.2361 34.4335 36.3801 34.5256C36.7144 34.738 36.8122 35.0442 36.7127 35.4159C36.6184 35.7664 36.3641 35.9434 36.0191 35.9841C35.8004 36.0106 35.5763 35.9965 35.3558 35.9965C30.9242 35.9965 25.9538 35.9965 21.5222 35.9965C17.0906 35.9965 12.5612 35.9929 8.08161 35.9982H8.07627C7.20667 35.9982 6.42777 35.7717 5.77512 35.184C5.59907 35.0247 5.44613 34.8548 5.31631 34.6743C5.31631 34.6707 5.31276 34.669 5.31098 34.6654C5.24162 34.5628 5.1776 34.453 5.11714 34.3362C4.88774 33.8848 4.9731 33.3379 5.3252 32.9751V32.9733Z" fill="url(#paint3_linear_459_1082)"/>
<path d="M59.0796 35.561L56.51 32.9916C56.3812 32.8629 56.3836 32.6544 56.5149 32.528L57.1441 31.9234C57.5023 31.5567 57.7709 31.1569 57.9512 30.7227C58.0174 30.5633 58.0518 30.3928 58.0518 30.2199V30.1745C58.0518 29.5649 57.5575 29.0707 56.9479 29.0707H53.4178C51.0309 29.0707 48.9887 28.2171 47.2936 26.5111C45.5973 24.826 44.7497 22.7692 44.7497 20.3384V19.4468C44.8147 17.1141 45.6623 15.1322 47.2936 13.501C48.9899 11.795 51.0309 10.9414 53.4178 10.9414H62.1006C62.8182 10.9414 63.3996 11.5227 63.3996 12.2402V15.6755C63.3996 16.0262 63.2585 16.3611 63.0071 16.6063L58.7178 20.7812C58.5117 20.9811 58.1671 20.8351 58.1671 20.5481V17.5213C58.1671 16.8038 57.5857 16.2225 56.8681 16.2225H53.419C52.5003 16.2225 51.7117 16.5413 51.053 17.1779C50.3833 17.8156 50.0215 18.5932 49.9675 19.5106V20.531C50.0215 21.4704 50.3833 22.2541 51.053 22.8796C51.7117 23.5272 52.5003 23.8522 53.419 23.8522H62.1019C62.8194 23.8522 63.4008 24.4335 63.4008 25.151V29.4423C63.4008 31.7259 62.6452 33.6919 61.1353 35.3403L60.9244 35.5537C60.4178 36.0651 59.5923 36.0676 59.0833 35.5586L59.0796 35.561Z" fill="#343A40"/>
<path d="M68.4703 35.5343L65.9374 32.9465C65.7951 32.8017 65.8221 32.565 65.9889 32.4498C66.2085 32.2977 66.4158 32.1248 66.6108 31.9298C66.9236 31.6096 67.1627 31.2638 67.3283 30.8922C67.4363 30.6506 67.4866 30.3881 67.4866 30.1232V11.2728C67.4866 11.0937 67.6313 10.9478 67.8116 10.9478H71.4385C72.1561 10.9478 72.7375 11.5291 72.7375 12.2466V20.3448C72.7375 21.3173 73.0772 22.1427 73.758 22.8234C74.3847 23.4501 75.1354 23.796 76.0099 23.8598H76.7557V29.077H75.978C74.9821 29.0685 74.0487 28.8968 73.179 28.5656C72.9656 28.4847 72.7375 28.6404 72.7375 28.8685V29.4511C72.7375 31.7703 71.9684 33.7621 70.4291 35.4263L70.3494 35.5122C69.844 36.0543 68.9891 36.0641 68.4715 35.5355L68.4703 35.5343Z" fill="#343A40"/>
<path d="M76.2995 23.8561H77.6279C78.5785 23.8561 79.3831 23.5262 80.0417 22.8676C80.7433 22.1661 81.0954 21.3284 81.0954 20.3558V11.2679C81.0954 11.0888 81.2401 10.9429 81.4204 10.9429H84.9983C85.7158 10.9429 86.2972 11.5242 86.2972 12.2417V20.3399C86.2972 21.3124 86.6541 22.1378 87.3668 22.8185C87.9715 23.4452 88.7111 23.7911 89.5869 23.8549H90.3485V29.0722H89.7328C87.7593 29.0722 86.02 28.481 84.5187 27.2975C84.0501 26.9283 83.3903 26.9247 82.9193 27.2914C81.3885 28.4786 79.6259 29.0722 77.6291 29.0722H76.3007V23.8549L76.2995 23.8561Z" fill="#343A40"/>
<path d="M103.979 7.82282V4.32501C103.979 4.14595 104.124 4 104.304 4H107.951C108.668 4 109.25 4.58133 109.25 5.2988V7.82405C109.25 8.00311 109.105 8.14906 108.925 8.14906H104.304C104.125 8.14906 103.979 8.00434 103.979 7.82405V7.82282Z" fill="#343A40"/>
<path d="M89.8766 23.8563H91.3841C92.2378 23.7913 92.9823 23.4455 93.6201 22.82C94.3217 22.1393 94.6737 21.3127 94.6737 20.3413V11.2693C94.6737 11.0903 94.8185 10.9443 94.9988 10.9443H98.5767C99.2942 10.9443 99.8756 11.5257 99.8756 12.2431V20.3573C99.8756 22.766 99.028 24.824 97.3317 26.53C95.6243 28.2262 93.5993 29.0736 91.2553 29.0736H89.8779V23.8563H89.8766Z" fill="#343A40"/>
<path d="M85.8346 8.13921H77.2818C77.1027 8.13921 76.9567 7.99449 76.9567 7.8142V4.33233C76.9567 4.15327 77.1015 4.00732 77.2818 4.00732H84.9993C85.7168 4.00732 86.2982 4.58866 86.2982 5.30613V7.67684C86.2982 7.93194 86.0909 8.13921 85.8358 8.13921H85.8346Z" fill="#343A40"/>
<path d="M99.2232 35.9991H90.5318C90.3527 35.9991 90.2067 35.8544 90.2067 35.6741V32.1922C90.2067 32.0131 90.3515 31.8672 90.5318 31.8672H98.2493C98.9668 31.8672 99.5482 32.4485 99.5482 33.166V35.6741C99.5482 35.8531 99.4035 35.9991 99.2232 35.9991Z" fill="#343A40"/>
<path d="M104.971 35.6078L102.431 33.0127C102.289 32.8667 102.314 32.63 102.482 32.5147C102.703 32.3626 102.911 32.1885 103.107 31.9923C103.42 31.6709 103.66 31.3238 103.826 30.9522C103.934 30.7106 103.984 30.4469 103.984 30.182V11.2801C103.984 11.0998 104.13 10.9551 104.309 10.9551H107.946C108.664 10.9551 109.247 11.5376 109.247 12.2563V29.5075C109.247 31.8439 108.468 33.8491 106.91 35.5232L106.853 35.5857C106.346 36.1291 105.489 36.1389 104.97 35.609L104.971 35.6078Z" fill="#343A40"/>
<defs>
<linearGradient id="paint0_linear_459_1082" x1="23.6986" y1="10.9013" x2="35.978" y2="23.041" gradientUnits="userSpaceOnUse">
<stop stop-color="#FF6000"/>
<stop offset="1" stop-color="#FF6000"/>
</linearGradient>
<linearGradient id="paint1_linear_459_1082" x1="23.6696" y1="8.10134" x2="35.6594" y2="19.0765" gradientUnits="userSpaceOnUse">
<stop stop-color="#FF6000"/>
<stop offset="0.16" stop-color="#FC5F00"/>
<stop offset="0.24" stop-color="#F45C00"/>
<stop offset="0.31" stop-color="#E75700"/>
<stop offset="0.36" stop-color="#D45000"/>
<stop offset="0.41" stop-color="#BC4700"/>
<stop offset="0.46" stop-color="#9D3C00"/>
<stop offset="0.5" stop-color="#7A2F00"/>
<stop offset="0.53" stop-color="#5A2300"/>
</linearGradient>
<linearGradient id="paint2_linear_459_1082" x1="17.805" y1="29.1007" x2="5.52564" y2="16.9611" gradientUnits="userSpaceOnUse">
<stop stop-color="#FF6000"/>
<stop offset="1" stop-color="#FF6000"/>
</linearGradient>
<linearGradient id="paint3_linear_459_1082" x1="17.8304" y1="31.8989" x2="5.84057" y2="20.9255" gradientUnits="userSpaceOnUse">
<stop stop-color="#FF6000"/>
<stop offset="0.16" stop-color="#FC5F00"/>
<stop offset="0.24" stop-color="#F45C00"/>
<stop offset="0.31" stop-color="#E75700"/>
<stop offset="0.36" stop-color="#D45000"/>
<stop offset="0.41" stop-color="#BC4700"/>
<stop offset="0.46" stop-color="#9D3C00"/>
<stop offset="0.5" stop-color="#7A2F00"/>
<stop offset="0.53" stop-color="#5A2300"/>
</linearGradient>
</defs>
</svg>
